<svg width="267" height="97" viewBox="0 0 267 97" fill="none" xmlns="http://www.w3.org/2000/svg">
<g filter="url(#filter0_d_7443_22896)">
<path d="M117.945 33.1759L118.319 32.505C119.431 30.5279 120.884 28.7558 122.614 27.2681C124.213 25.8938 126.037 24.7962 128.01 24.0221C129.549 23.4258 131.181 23.0963 132.834 23.0483H133.825C135.763 23.1034 137.659 23.6155 139.353 24.5414L139.639 24.6929C140.105 24.9546 140.509 25.3083 140.829 25.7317C141.143 26.1811 141.361 26.6894 141.467 27.2248C141.577 27.7968 141.577 28.3841 141.467 28.956C141.359 29.5891 141.136 30.1977 140.807 30.7522C140.489 31.3118 140.08 31.8162 139.595 32.2453C139.159 32.6384 138.651 32.9468 138.097 33.1542C137.586 33.3504 137.037 33.4318 136.49 33.3923C135.948 33.3687 135.42 33.2204 134.948 32.9595L134.684 32.808C133.929 32.3888 133.083 32.1515 132.217 32.1155C131.321 32.0977 130.431 32.2521 129.596 32.5699C128.721 32.8996 127.915 33.3836 127.217 33.9982C126.451 34.6616 125.81 35.4528 125.323 36.3353L124.949 37.0062C124.437 37.8666 124.094 38.8134 123.936 39.7978C123.759 40.7129 123.759 41.6525 123.936 42.5677C124.098 43.4257 124.435 44.2426 124.927 44.9697C125.407 45.683 126.057 46.2699 126.821 46.6793L127.107 46.8308C127.572 47.0925 127.977 47.4462 128.297 47.8695C128.62 48.3062 128.838 48.8094 128.935 49.341C129.045 49.913 129.045 50.5003 128.935 51.0723C128.824 51.7113 128.6 52.3264 128.275 52.89C127.962 53.4469 127.552 53.9451 127.063 54.3616C126.628 54.7612 126.12 55.0768 125.565 55.2921C125.054 55.4883 124.505 55.5696 123.958 55.5301C123.417 55.4889 122.891 55.3339 122.416 55.0757L122.152 54.9242C120.454 54.0113 119.01 52.7036 117.945 51.1155C117.747 50.8342 117.593 50.5529 117.416 50.2716C116.593 48.87 116.019 47.3403 115.72 45.7488C115.356 43.6867 115.356 41.5785 115.72 39.5164C116.073 37.29 116.827 35.1431 117.945 33.1759Z" fill="#1EBAA2"/>
<path d="M133.45 82.1259C127.89 82.1647 122.383 81.059 117.284 78.8798C107.332 74.6925 99.432 66.8604 95.2596 57.0449C93.1079 51.9784 92 46.5429 92 41.0529C92 35.5629 93.1079 30.1274 95.2596 25.0608C97.3395 20.2271 100.328 15.8222 104.07 12.0767C107.852 8.31663 112.34 5.31113 117.284 3.22589C122.392 1.05185 127.906 -0.0465417 133.472 0.00151124C139.019 -0.0421814 144.516 1.04083 149.617 3.18261C154.493 5.22107 158.927 8.15949 162.677 11.8387C170.394 19.4928 174.797 29.783 174.967 40.5551V74.0324C174.989 75.0367 174.806 76.0351 174.428 76.9683C174.049 77.9014 173.484 78.7502 172.765 79.4641C172.048 80.1784 171.189 80.7393 170.242 81.1118C169.294 81.4842 168.278 81.66 167.258 81.6281C166.26 81.6687 165.265 81.4962 164.341 81.1227C163.417 80.7491 162.586 80.1833 161.906 79.4641C160.541 77.9694 159.808 76.0187 159.858 74.0108V72.8206C156.257 75.7535 152.176 78.0656 147.789 79.6589C143.203 81.336 138.343 82.1722 133.45 82.1259ZM133.45 67.1509C137.038 67.1827 140.593 66.4827 143.89 65.0951C150.275 62.3005 155.299 57.1696 157.894 50.7929C160.489 44.4162 160.451 37.2964 157.788 30.9469C156.508 27.8598 154.622 25.0508 152.237 22.6804C149.846 20.3095 147.012 18.4139 143.89 17.0972C140.598 15.7402 137.064 15.0413 133.494 15.0413C129.925 15.0413 126.391 15.7402 123.099 17.0972C119.988 18.4101 117.167 20.3065 114.796 22.6804C112.432 25.0676 110.549 27.8723 109.245 30.9469C107.893 34.1505 107.197 37.5847 107.197 41.0529C107.197 44.5211 107.893 47.9552 109.245 51.1588C110.559 54.2409 112.441 57.0581 114.796 59.4686C117.216 61.9183 120.118 63.8602 123.324 65.1769C126.531 66.4936 129.975 67.1578 133.45 67.1292V67.1509Z" fill="#1EBAA2"/>
<path fill-rule="evenodd" clip-rule="evenodd" d="M4.94336 56.9545V75.3636H47.3865V89H70.057V75.3636H80.1138V56.9545H70.057V1.72726H56.7615H47.8979H40.057L4.94336 56.9545ZM47.8979 26.2727H47.2161L28.2956 56.2727V56.9545H47.8979V26.2727ZM186.943 56.9545V75.3636H229.387V89H252.057V75.3636H262.114V56.9545H252.057V1.72726H238.762H229.898H222.057L186.943 56.9545ZM229.898 26.2727H229.216L210.296 56.2727V56.9545H229.898V26.2727Z" fill="black"/>
</g>
<defs>
<filter id="filter0_d_7443_22896" x="0.943359" y="0" width="265.17" height="97" filterUnits="userSpaceOnUse" color-interpolation-filters="sRGB">
<feFlood flood-opacity="0" result="BackgroundImageFix"/>
<feColorMatrix in="SourceAlpha" type="matrix" values="0 0 0 0 0 0 0 0 0 0 0 0 0 0 0 0 0 0 127 0" result="hardAlpha"/>
<feOffset dy="4"/>
<feGaussianBlur stdDeviation="2"/>
<feComposite in2="hardAlpha" operator="out"/>
<feColorMatrix type="matrix" values="0 0 0 0 0 0 0 0 0 0 0 0 0 0 0 0 0 0 0.12 0"/>
<feBlend mode="normal" in2="BackgroundImageFix" result="effect1_dropShadow_7443_22896"/>
<feBlend mode="normal" in="SourceGraphic" in2="effect1_dropShadow_7443_22896" result="shape"/>
</filter>
</defs>
</svg>
